<mxfile host="app.diagrams.net" modified="2022-01-12T07:10:06.731Z" agent="5.0 (Windows NT 10.0; Win64; x64) AppleWebKit/537.36 (KHTML, like Gecko) Chrome/97.0.4692.71 Safari/537.36" etag="btQFUH7un_ccyLiXzUMR" version="16.2.4" type="github" pages="4">
  <diagram id="TrSOcgq1P8zjbeBmHI5Y" name="第 1 页">
    <mxGraphModel dx="1966" dy="891" grid="1" gridSize="10" guides="1" tooltips="1" connect="1" arrows="1" fold="1" page="1" pageScale="1" pageWidth="827" pageHeight="1169" math="0" shadow="0">
      <root>
        <mxCell id="0" />
        <mxCell id="1" parent="0" />
        <mxCell id="y9LRkIkVJuertMiDrjGQ-1" value="技术支持前端" style="shape=umlLifeline;perimeter=lifelinePerimeter;whiteSpace=wrap;html=1;container=1;collapsible=0;recursiveResize=0;outlineConnect=0;" vertex="1" parent="1">
          <mxGeometry x="339" y="151" width="100" height="440" as="geometry" />
        </mxCell>
        <mxCell id="y9LRkIkVJuertMiDrjGQ-2" value="" style="html=1;points=[];perimeter=orthogonalPerimeter;" vertex="1" parent="y9LRkIkVJuertMiDrjGQ-1">
          <mxGeometry x="45" y="80" width="10" height="280" as="geometry" />
        </mxCell>
        <mxCell id="y9LRkIkVJuertMiDrjGQ-3" value="DMS-PC-BEFF服务" style="shape=umlLifeline;perimeter=lifelinePerimeter;whiteSpace=wrap;html=1;container=1;collapsible=0;recursiveResize=0;outlineConnect=0;" vertex="1" parent="1">
          <mxGeometry x="539" y="151" width="100" height="440" as="geometry" />
        </mxCell>
        <mxCell id="y9LRkIkVJuertMiDrjGQ-4" value="" style="html=1;points=[];perimeter=orthogonalPerimeter;" vertex="1" parent="y9LRkIkVJuertMiDrjGQ-3">
          <mxGeometry x="45" y="80" width="10" height="270" as="geometry" />
        </mxCell>
        <mxCell id="y9LRkIkVJuertMiDrjGQ-5" value="2.调用服务改善报告提交（）" style="html=1;verticalAlign=bottom;endArrow=block;rounded=0;" edge="1" parent="y9LRkIkVJuertMiDrjGQ-3">
          <mxGeometry width="80" relative="1" as="geometry">
            <mxPoint x="55" y="120" as="sourcePoint" />
            <mxPoint x="244.5" y="120" as="targetPoint" />
          </mxGeometry>
        </mxCell>
        <mxCell id="y9LRkIkVJuertMiDrjGQ-6" value="技术支持聚合服务" style="shape=umlLifeline;perimeter=lifelinePerimeter;whiteSpace=wrap;html=1;container=1;collapsible=0;recursiveResize=0;outlineConnect=0;" vertex="1" parent="1">
          <mxGeometry x="739" y="151" width="100" height="440" as="geometry" />
        </mxCell>
        <mxCell id="y9LRkIkVJuertMiDrjGQ-7" value="" style="html=1;points=[];perimeter=orthogonalPerimeter;" vertex="1" parent="y9LRkIkVJuertMiDrjGQ-6">
          <mxGeometry x="45" y="120" width="10" height="220" as="geometry" />
        </mxCell>
        <mxCell id="y9LRkIkVJuertMiDrjGQ-8" value="质量反馈跟踪原子服务" style="shape=umlLifeline;perimeter=lifelinePerimeter;whiteSpace=wrap;html=1;container=1;collapsible=0;recursiveResize=0;outlineConnect=0;" vertex="1" parent="1">
          <mxGeometry x="939" y="150" width="131" height="441" as="geometry" />
        </mxCell>
        <mxCell id="y9LRkIkVJuertMiDrjGQ-9" value="" style="html=1;points=[];perimeter=orthogonalPerimeter;" vertex="1" parent="y9LRkIkVJuertMiDrjGQ-8">
          <mxGeometry x="60" y="160" width="10" height="170" as="geometry" />
        </mxCell>
        <mxCell id="y9LRkIkVJuertMiDrjGQ-10" value="" style="html=1;points=[];perimeter=orthogonalPerimeter;" vertex="1" parent="y9LRkIkVJuertMiDrjGQ-8">
          <mxGeometry x="70" y="201" width="10" height="40" as="geometry" />
        </mxCell>
        <mxCell id="y9LRkIkVJuertMiDrjGQ-11" value="3.1提交服务改善报告（）" style="edgeStyle=orthogonalEdgeStyle;html=1;align=left;spacingLeft=2;endArrow=block;rounded=0;entryX=1;entryY=0;" edge="1" parent="y9LRkIkVJuertMiDrjGQ-8" target="y9LRkIkVJuertMiDrjGQ-10">
          <mxGeometry relative="1" as="geometry">
            <mxPoint x="70" y="181" as="sourcePoint" />
            <Array as="points">
              <mxPoint x="100" y="181" />
            </Array>
          </mxGeometry>
        </mxCell>
        <mxCell id="y9LRkIkVJuertMiDrjGQ-12" value="3.调用服务改善报告提交（）" style="html=1;verticalAlign=bottom;endArrow=block;rounded=0;" edge="1" parent="y9LRkIkVJuertMiDrjGQ-8">
          <mxGeometry width="80" relative="1" as="geometry">
            <mxPoint x="-144" y="160" as="sourcePoint" />
            <mxPoint x="65" y="160" as="targetPoint" />
          </mxGeometry>
        </mxCell>
        <mxCell id="y9LRkIkVJuertMiDrjGQ-13" value="1.发起服务改善报告提交请求（）" style="html=1;verticalAlign=bottom;endArrow=block;rounded=0;exitX=1;exitY=0.005;exitDx=0;exitDy=0;exitPerimeter=0;entryX=0;entryY=0;entryDx=0;entryDy=0;entryPerimeter=0;" edge="1" parent="1" source="y9LRkIkVJuertMiDrjGQ-2" target="y9LRkIkVJuertMiDrjGQ-4">
          <mxGeometry width="80" relative="1" as="geometry">
            <mxPoint x="399" y="231" as="sourcePoint" />
            <mxPoint x="479" y="231" as="targetPoint" />
          </mxGeometry>
        </mxCell>
        <mxCell id="y9LRkIkVJuertMiDrjGQ-14" value="" style="html=1;verticalAlign=bottom;endArrow=open;dashed=1;endSize=8;rounded=0;" edge="1" parent="1">
          <mxGeometry relative="1" as="geometry">
            <mxPoint x="1004" y="480" as="sourcePoint" />
            <mxPoint x="793.3235294117653" y="480" as="targetPoint" />
          </mxGeometry>
        </mxCell>
        <mxCell id="y9LRkIkVJuertMiDrjGQ-15" value="" style="html=1;verticalAlign=bottom;endArrow=open;dashed=1;endSize=8;rounded=0;" edge="1" parent="1">
          <mxGeometry relative="1" as="geometry">
            <mxPoint x="783" y="491" as="sourcePoint" />
            <mxPoint x="592.5" y="491" as="targetPoint" />
          </mxGeometry>
        </mxCell>
        <mxCell id="y9LRkIkVJuertMiDrjGQ-16" value="" style="html=1;verticalAlign=bottom;endArrow=open;dashed=1;endSize=8;rounded=0;" edge="1" parent="1">
          <mxGeometry relative="1" as="geometry">
            <mxPoint x="583" y="501" as="sourcePoint" />
            <mxPoint x="392.5" y="501" as="targetPoint" />
          </mxGeometry>
        </mxCell>
        <mxCell id="y9LRkIkVJuertMiDrjGQ-17" value="技术支持前端" style="shape=umlLifeline;perimeter=lifelinePerimeter;whiteSpace=wrap;html=1;container=1;collapsible=0;recursiveResize=0;outlineConnect=0;" vertex="1" parent="1">
          <mxGeometry x="296" y="780" width="100" height="460" as="geometry" />
        </mxCell>
        <mxCell id="y9LRkIkVJuertMiDrjGQ-18" value="" style="html=1;points=[];perimeter=orthogonalPerimeter;" vertex="1" parent="y9LRkIkVJuertMiDrjGQ-17">
          <mxGeometry x="45" y="80" width="10" height="280" as="geometry" />
        </mxCell>
        <mxCell id="y9LRkIkVJuertMiDrjGQ-19" value="DMS-PC-BEFF服务" style="shape=umlLifeline;perimeter=lifelinePerimeter;whiteSpace=wrap;html=1;container=1;collapsible=0;recursiveResize=0;outlineConnect=0;size=40;" vertex="1" parent="1">
          <mxGeometry x="496" y="780" width="100" height="460" as="geometry" />
        </mxCell>
        <mxCell id="y9LRkIkVJuertMiDrjGQ-20" value="" style="html=1;points=[];perimeter=orthogonalPerimeter;" vertex="1" parent="y9LRkIkVJuertMiDrjGQ-19">
          <mxGeometry x="45" y="80" width="10" height="270" as="geometry" />
        </mxCell>
        <mxCell id="y9LRkIkVJuertMiDrjGQ-21" value="2.调用服务改善报告评价（）" style="html=1;verticalAlign=bottom;endArrow=block;rounded=0;" edge="1" parent="y9LRkIkVJuertMiDrjGQ-19">
          <mxGeometry width="80" relative="1" as="geometry">
            <mxPoint x="55" y="120" as="sourcePoint" />
            <mxPoint x="244.5" y="120" as="targetPoint" />
          </mxGeometry>
        </mxCell>
        <mxCell id="y9LRkIkVJuertMiDrjGQ-22" value="技术支持聚合服务" style="shape=umlLifeline;perimeter=lifelinePerimeter;whiteSpace=wrap;html=1;container=1;collapsible=0;recursiveResize=0;outlineConnect=0;" vertex="1" parent="1">
          <mxGeometry x="696" y="780" width="100" height="460" as="geometry" />
        </mxCell>
        <mxCell id="y9LRkIkVJuertMiDrjGQ-23" value="" style="html=1;points=[];perimeter=orthogonalPerimeter;" vertex="1" parent="y9LRkIkVJuertMiDrjGQ-22">
          <mxGeometry x="45" y="120" width="10" height="220" as="geometry" />
        </mxCell>
        <mxCell id="y9LRkIkVJuertMiDrjGQ-24" value="3.调用服务改善报告评价（）" style="html=1;verticalAlign=bottom;endArrow=block;rounded=0;entryX=-0.4;entryY=0;entryDx=0;entryDy=0;entryPerimeter=0;" edge="1" parent="y9LRkIkVJuertMiDrjGQ-22" source="y9LRkIkVJuertMiDrjGQ-23">
          <mxGeometry width="80" relative="1" as="geometry">
            <mxPoint x="63" y="160" as="sourcePoint" />
            <mxPoint x="263" y="160" as="targetPoint" />
          </mxGeometry>
        </mxCell>
        <mxCell id="y9LRkIkVJuertMiDrjGQ-25" value="质量反馈跟踪原子服务" style="shape=umlLifeline;perimeter=lifelinePerimeter;whiteSpace=wrap;html=1;container=1;collapsible=0;recursiveResize=0;outlineConnect=0;" vertex="1" parent="1">
          <mxGeometry x="896" y="780" width="130" height="460" as="geometry" />
        </mxCell>
        <mxCell id="y9LRkIkVJuertMiDrjGQ-26" value="" style="html=1;points=[];perimeter=orthogonalPerimeter;" vertex="1" parent="y9LRkIkVJuertMiDrjGQ-25">
          <mxGeometry x="60" y="160" width="10" height="160" as="geometry" />
        </mxCell>
        <mxCell id="y9LRkIkVJuertMiDrjGQ-27" value="" style="html=1;points=[];perimeter=orthogonalPerimeter;" vertex="1" parent="y9LRkIkVJuertMiDrjGQ-25">
          <mxGeometry x="70" y="200" width="10" height="40" as="geometry" />
        </mxCell>
        <mxCell id="y9LRkIkVJuertMiDrjGQ-28" value="3.1服务改善报告已评价（）" style="edgeStyle=orthogonalEdgeStyle;html=1;align=left;spacingLeft=2;endArrow=block;rounded=0;entryX=1;entryY=0;" edge="1" parent="y9LRkIkVJuertMiDrjGQ-25" target="y9LRkIkVJuertMiDrjGQ-27">
          <mxGeometry x="-0.1143" y="5" relative="1" as="geometry">
            <mxPoint x="70" y="180" as="sourcePoint" />
            <Array as="points">
              <mxPoint x="100" y="180" />
            </Array>
            <mxPoint as="offset" />
          </mxGeometry>
        </mxCell>
        <mxCell id="y9LRkIkVJuertMiDrjGQ-29" value="1.发起服务改善报告评价请求（）" style="html=1;verticalAlign=bottom;endArrow=block;rounded=0;exitX=1;exitY=0.001;exitDx=0;exitDy=0;exitPerimeter=0;entryX=0;entryY=0;entryDx=0;entryDy=0;entryPerimeter=0;" edge="1" parent="1" source="y9LRkIkVJuertMiDrjGQ-18" target="y9LRkIkVJuertMiDrjGQ-20">
          <mxGeometry x="-0.0631" y="1" width="80" relative="1" as="geometry">
            <mxPoint x="356" y="860" as="sourcePoint" />
            <mxPoint x="436" y="860" as="targetPoint" />
            <mxPoint as="offset" />
          </mxGeometry>
        </mxCell>
        <mxCell id="y9LRkIkVJuertMiDrjGQ-30" value="" style="html=1;verticalAlign=bottom;endArrow=open;dashed=1;endSize=8;rounded=0;exitX=-0.2;exitY=1;exitDx=0;exitDy=0;exitPerimeter=0;" edge="1" parent="1" source="y9LRkIkVJuertMiDrjGQ-26">
          <mxGeometry relative="1" as="geometry">
            <mxPoint x="940" y="1100" as="sourcePoint" />
            <mxPoint x="749.3235294117653" y="1100" as="targetPoint" />
          </mxGeometry>
        </mxCell>
        <mxCell id="y9LRkIkVJuertMiDrjGQ-31" value="" style="html=1;verticalAlign=bottom;endArrow=open;dashed=1;endSize=8;rounded=0;" edge="1" parent="1">
          <mxGeometry relative="1" as="geometry">
            <mxPoint x="740" y="1120" as="sourcePoint" />
            <mxPoint x="549.5" y="1120" as="targetPoint" />
          </mxGeometry>
        </mxCell>
        <mxCell id="y9LRkIkVJuertMiDrjGQ-32" value="" style="html=1;verticalAlign=bottom;endArrow=open;dashed=1;endSize=8;rounded=0;" edge="1" parent="1">
          <mxGeometry relative="1" as="geometry">
            <mxPoint x="540" y="1130" as="sourcePoint" />
            <mxPoint x="349.5" y="1130" as="targetPoint" />
          </mxGeometry>
        </mxCell>
        <mxCell id="y9LRkIkVJuertMiDrjGQ-33" value="skr提交行为设计" style="shape=umlFrame;whiteSpace=wrap;html=1;width=100;height=30;" vertex="1" parent="1">
          <mxGeometry x="230" y="101" width="990" height="540" as="geometry" />
        </mxCell>
        <mxCell id="y9LRkIkVJuertMiDrjGQ-34" value="skr评价行为设计" style="shape=umlFrame;whiteSpace=wrap;html=1;width=99;height=30;" vertex="1" parent="1">
          <mxGeometry x="230" y="720" width="989" height="540" as="geometry" />
        </mxCell>
      </root>
    </mxGraphModel>
  </diagram>
  <diagram name="skr聚合根设计" id="5BwiAaiVjhntde1D76YD">
    <mxGraphModel dx="1278" dy="579" grid="1" gridSize="10" guides="1" tooltips="1" connect="1" arrows="1" fold="1" page="1" pageScale="1" pageWidth="3300" pageHeight="4681" math="0" shadow="0">
      <root>
        <mxCell id="-Jd7vyAMfyjJsaXYtgSQ-0" />
        <mxCell id="-Jd7vyAMfyjJsaXYtgSQ-1" parent="-Jd7vyAMfyjJsaXYtgSQ-0" />
        <mxCell id="TLOllca4X_2cKeXK6NPu-2" value="skr" style="shape=table;startSize=30;container=1;collapsible=1;childLayout=tableLayout;fixedRows=1;rowLines=0;fontStyle=1;align=center;resizeLast=1;fillColor=#D0C96F;strokeColor=#b85450;" parent="-Jd7vyAMfyjJsaXYtgSQ-1" vertex="1">
          <mxGeometry x="535" y="720" width="170" height="210" as="geometry" />
        </mxCell>
        <mxCell id="TLOllca4X_2cKeXK6NPu-3" value="" style="shape=partialRectangle;collapsible=0;dropTarget=0;pointerEvents=0;fillColor=#D0C96F;top=0;left=0;bottom=1;right=0;points=[[0,0.5],[1,0.5]];portConstraint=eastwest;" parent="TLOllca4X_2cKeXK6NPu-2" vertex="1">
          <mxGeometry y="30" width="170" height="30" as="geometry" />
        </mxCell>
        <mxCell id="TLOllca4X_2cKeXK6NPu-4" value="PK" style="shape=partialRectangle;connectable=0;fillColor=#D0C96F;top=0;left=0;bottom=0;right=0;fontStyle=1;overflow=hidden;strokeColor=#b85450;" parent="TLOllca4X_2cKeXK6NPu-3" vertex="1">
          <mxGeometry width="30" height="30" as="geometry">
            <mxRectangle width="30" height="30" as="alternateBounds" />
          </mxGeometry>
        </mxCell>
        <mxCell id="TLOllca4X_2cKeXK6NPu-5" value="ID" style="shape=partialRectangle;connectable=0;fillColor=#D0C96F;top=0;left=0;bottom=0;right=0;align=left;spacingLeft=6;fontStyle=5;overflow=hidden;strokeColor=#b85450;" parent="TLOllca4X_2cKeXK6NPu-3" vertex="1">
          <mxGeometry x="30" width="140" height="30" as="geometry">
            <mxRectangle width="140" height="30" as="alternateBounds" />
          </mxGeometry>
        </mxCell>
        <mxCell id="TLOllca4X_2cKeXK6NPu-6" value="" style="shape=partialRectangle;collapsible=0;dropTarget=0;pointerEvents=0;fillColor=#D0C96F;top=0;left=0;bottom=0;right=0;points=[[0,0.5],[1,0.5]];portConstraint=eastwest;" parent="TLOllca4X_2cKeXK6NPu-2" vertex="1">
          <mxGeometry y="60" width="170" height="30" as="geometry" />
        </mxCell>
        <mxCell id="TLOllca4X_2cKeXK6NPu-7" value="" style="shape=partialRectangle;connectable=0;fillColor=#D0C96F;top=0;left=0;bottom=0;right=0;editable=1;overflow=hidden;strokeColor=#b85450;" parent="TLOllca4X_2cKeXK6NPu-6" vertex="1">
          <mxGeometry width="30" height="30" as="geometry">
            <mxRectangle width="30" height="30" as="alternateBounds" />
          </mxGeometry>
        </mxCell>
        <mxCell id="TLOllca4X_2cKeXK6NPu-8" value="经销店代码" style="shape=partialRectangle;connectable=0;fillColor=#D0C96F;top=0;left=0;bottom=0;right=0;align=left;spacingLeft=6;overflow=hidden;strokeColor=#b85450;" parent="TLOllca4X_2cKeXK6NPu-6" vertex="1">
          <mxGeometry x="30" width="140" height="30" as="geometry">
            <mxRectangle width="140" height="30" as="alternateBounds" />
          </mxGeometry>
        </mxCell>
        <mxCell id="TLOllca4X_2cKeXK6NPu-9" value="" style="shape=partialRectangle;collapsible=0;dropTarget=0;pointerEvents=0;fillColor=#D0C96F;top=0;left=0;bottom=0;right=0;points=[[0,0.5],[1,0.5]];portConstraint=eastwest;" parent="TLOllca4X_2cKeXK6NPu-2" vertex="1">
          <mxGeometry y="90" width="170" height="30" as="geometry" />
        </mxCell>
        <mxCell id="TLOllca4X_2cKeXK6NPu-10" value="" style="shape=partialRectangle;connectable=0;fillColor=#D0C96F;top=0;left=0;bottom=0;right=0;editable=1;overflow=hidden;strokeColor=#b85450;" parent="TLOllca4X_2cKeXK6NPu-9" vertex="1">
          <mxGeometry width="30" height="30" as="geometry">
            <mxRectangle width="30" height="30" as="alternateBounds" />
          </mxGeometry>
        </mxCell>
        <mxCell id="TLOllca4X_2cKeXK6NPu-11" value="担当" style="shape=partialRectangle;connectable=0;fillColor=#D0C96F;top=0;left=0;bottom=0;right=0;align=left;spacingLeft=6;overflow=hidden;strokeColor=#b85450;" parent="TLOllca4X_2cKeXK6NPu-9" vertex="1">
          <mxGeometry x="30" width="140" height="30" as="geometry">
            <mxRectangle width="140" height="30" as="alternateBounds" />
          </mxGeometry>
        </mxCell>
        <mxCell id="TLOllca4X_2cKeXK6NPu-12" value="" style="shape=partialRectangle;collapsible=0;dropTarget=0;pointerEvents=0;fillColor=#D0C96F;top=0;left=0;bottom=0;right=0;points=[[0,0.5],[1,0.5]];portConstraint=eastwest;" parent="TLOllca4X_2cKeXK6NPu-2" vertex="1">
          <mxGeometry y="120" width="170" height="30" as="geometry" />
        </mxCell>
        <mxCell id="TLOllca4X_2cKeXK6NPu-13" value="" style="shape=partialRectangle;connectable=0;fillColor=#D0C96F;top=0;left=0;bottom=0;right=0;editable=1;overflow=hidden;strokeColor=#b85450;" parent="TLOllca4X_2cKeXK6NPu-12" vertex="1">
          <mxGeometry width="30" height="30" as="geometry">
            <mxRectangle width="30" height="30" as="alternateBounds" />
          </mxGeometry>
        </mxCell>
        <mxCell id="TLOllca4X_2cKeXK6NPu-14" value="报告日期" style="shape=partialRectangle;connectable=0;fillColor=#D0C96F;top=0;left=0;bottom=0;right=0;align=left;spacingLeft=6;overflow=hidden;strokeColor=#b85450;" parent="TLOllca4X_2cKeXK6NPu-12" vertex="1">
          <mxGeometry x="30" width="140" height="30" as="geometry">
            <mxRectangle width="140" height="30" as="alternateBounds" />
          </mxGeometry>
        </mxCell>
        <mxCell id="TLOllca4X_2cKeXK6NPu-18" value="" style="shape=partialRectangle;collapsible=0;dropTarget=0;pointerEvents=0;fillColor=#D0C96F;top=0;left=0;bottom=0;right=0;points=[[0,0.5],[1,0.5]];portConstraint=eastwest;" parent="TLOllca4X_2cKeXK6NPu-2" vertex="1">
          <mxGeometry y="150" width="170" height="30" as="geometry" />
        </mxCell>
        <mxCell id="TLOllca4X_2cKeXK6NPu-19" value="" style="shape=partialRectangle;connectable=0;fillColor=#D0C96F;top=0;left=0;bottom=0;right=0;editable=1;overflow=hidden;strokeColor=#b85450;" parent="TLOllca4X_2cKeXK6NPu-18" vertex="1">
          <mxGeometry width="30" height="30" as="geometry">
            <mxRectangle width="30" height="30" as="alternateBounds" />
          </mxGeometry>
        </mxCell>
        <mxCell id="TLOllca4X_2cKeXK6NPu-20" value="车辆信息" style="shape=partialRectangle;connectable=0;fillColor=#D0C96F;top=0;left=0;bottom=0;right=0;align=left;spacingLeft=6;overflow=hidden;strokeColor=#b85450;" parent="TLOllca4X_2cKeXK6NPu-18" vertex="1">
          <mxGeometry x="30" width="140" height="30" as="geometry">
            <mxRectangle width="140" height="30" as="alternateBounds" />
          </mxGeometry>
        </mxCell>
        <mxCell id="TLOllca4X_2cKeXK6NPu-36" value="" style="shape=partialRectangle;collapsible=0;dropTarget=0;pointerEvents=0;fillColor=#D0C96F;top=0;left=0;bottom=0;right=0;points=[[0,0.5],[1,0.5]];portConstraint=eastwest;" parent="TLOllca4X_2cKeXK6NPu-2" vertex="1">
          <mxGeometry y="180" width="170" height="30" as="geometry" />
        </mxCell>
        <mxCell id="TLOllca4X_2cKeXK6NPu-37" value="" style="shape=partialRectangle;connectable=0;fillColor=#D0C96F;top=0;left=0;bottom=0;right=0;editable=1;overflow=hidden;strokeColor=#b85450;" parent="TLOllca4X_2cKeXK6NPu-36" vertex="1">
          <mxGeometry width="30" height="30" as="geometry">
            <mxRectangle width="30" height="30" as="alternateBounds" />
          </mxGeometry>
        </mxCell>
        <mxCell id="TLOllca4X_2cKeXK6NPu-38" value="标题" style="shape=partialRectangle;connectable=0;fillColor=#D0C96F;top=0;left=0;bottom=0;right=0;align=left;spacingLeft=6;overflow=hidden;strokeColor=#b85450;" parent="TLOllca4X_2cKeXK6NPu-36" vertex="1">
          <mxGeometry x="30" width="140" height="30" as="geometry">
            <mxRectangle width="140" height="30" as="alternateBounds" />
          </mxGeometry>
        </mxCell>
        <mxCell id="TLOllca4X_2cKeXK6NPu-54" value="【共通】车辆信息" style="shape=table;startSize=30;container=1;collapsible=1;childLayout=tableLayout;fixedRows=1;rowLines=0;fontStyle=1;align=center;resizeLast=1;fillColor=#FFFA9E;strokeColor=#6c8ebf;" parent="-Jd7vyAMfyjJsaXYtgSQ-1" vertex="1">
          <mxGeometry x="220" y="720" width="180" height="240" as="geometry" />
        </mxCell>
        <mxCell id="TLOllca4X_2cKeXK6NPu-55" value="" style="shape=partialRectangle;collapsible=0;dropTarget=0;pointerEvents=0;fillColor=#FFFA9E;top=0;left=0;bottom=1;right=0;points=[[0,0.5],[1,0.5]];portConstraint=eastwest;" parent="TLOllca4X_2cKeXK6NPu-54" vertex="1">
          <mxGeometry y="30" width="180" height="30" as="geometry" />
        </mxCell>
        <mxCell id="TLOllca4X_2cKeXK6NPu-56" value="PK" style="shape=partialRectangle;connectable=0;fillColor=#FFFA9E;top=0;left=0;bottom=0;right=0;fontStyle=1;overflow=hidden;strokeColor=#6c8ebf;" parent="TLOllca4X_2cKeXK6NPu-55" vertex="1">
          <mxGeometry width="30" height="30" as="geometry">
            <mxRectangle width="30" height="30" as="alternateBounds" />
          </mxGeometry>
        </mxCell>
        <mxCell id="TLOllca4X_2cKeXK6NPu-57" value="ID" style="shape=partialRectangle;connectable=0;fillColor=#FFFA9E;top=0;left=0;bottom=0;right=0;align=left;spacingLeft=6;fontStyle=5;overflow=hidden;strokeColor=#6c8ebf;" parent="TLOllca4X_2cKeXK6NPu-55" vertex="1">
          <mxGeometry x="30" width="150" height="30" as="geometry">
            <mxRectangle width="150" height="30" as="alternateBounds" />
          </mxGeometry>
        </mxCell>
        <mxCell id="TLOllca4X_2cKeXK6NPu-58" value="" style="shape=partialRectangle;collapsible=0;dropTarget=0;pointerEvents=0;fillColor=#FFFA9E;top=0;left=0;bottom=0;right=0;points=[[0,0.5],[1,0.5]];portConstraint=eastwest;" parent="TLOllca4X_2cKeXK6NPu-54" vertex="1">
          <mxGeometry y="60" width="180" height="30" as="geometry" />
        </mxCell>
        <mxCell id="TLOllca4X_2cKeXK6NPu-59" value="" style="shape=partialRectangle;connectable=0;fillColor=#FFFA9E;top=0;left=0;bottom=0;right=0;editable=1;overflow=hidden;strokeColor=#6c8ebf;" parent="TLOllca4X_2cKeXK6NPu-58" vertex="1">
          <mxGeometry width="30" height="30" as="geometry">
            <mxRectangle width="30" height="30" as="alternateBounds" />
          </mxGeometry>
        </mxCell>
        <mxCell id="TLOllca4X_2cKeXK6NPu-60" value="VIN码" style="shape=partialRectangle;connectable=0;fillColor=#FFFA9E;top=0;left=0;bottom=0;right=0;align=left;spacingLeft=6;overflow=hidden;strokeColor=#6c8ebf;" parent="TLOllca4X_2cKeXK6NPu-58" vertex="1">
          <mxGeometry x="30" width="150" height="30" as="geometry">
            <mxRectangle width="150" height="30" as="alternateBounds" />
          </mxGeometry>
        </mxCell>
        <mxCell id="TLOllca4X_2cKeXK6NPu-73" value="" style="shape=partialRectangle;collapsible=0;dropTarget=0;pointerEvents=0;fillColor=#FFFA9E;top=0;left=0;bottom=0;right=0;points=[[0,0.5],[1,0.5]];portConstraint=eastwest;" parent="TLOllca4X_2cKeXK6NPu-54" vertex="1">
          <mxGeometry y="90" width="180" height="30" as="geometry" />
        </mxCell>
        <mxCell id="TLOllca4X_2cKeXK6NPu-74" value="" style="shape=partialRectangle;connectable=0;fillColor=#FFFA9E;top=0;left=0;bottom=0;right=0;editable=1;overflow=hidden;strokeColor=#6c8ebf;" parent="TLOllca4X_2cKeXK6NPu-73" vertex="1">
          <mxGeometry width="30" height="30" as="geometry">
            <mxRectangle width="30" height="30" as="alternateBounds" />
          </mxGeometry>
        </mxCell>
        <mxCell id="TLOllca4X_2cKeXK6NPu-75" value="车辆名称" style="shape=partialRectangle;connectable=0;fillColor=#FFFA9E;top=0;left=0;bottom=0;right=0;align=left;spacingLeft=6;overflow=hidden;strokeColor=#6c8ebf;" parent="TLOllca4X_2cKeXK6NPu-73" vertex="1">
          <mxGeometry x="30" width="150" height="30" as="geometry">
            <mxRectangle width="150" height="30" as="alternateBounds" />
          </mxGeometry>
        </mxCell>
        <mxCell id="TLOllca4X_2cKeXK6NPu-61" value="" style="shape=partialRectangle;collapsible=0;dropTarget=0;pointerEvents=0;fillColor=#FFFA9E;top=0;left=0;bottom=0;right=0;points=[[0,0.5],[1,0.5]];portConstraint=eastwest;" parent="TLOllca4X_2cKeXK6NPu-54" vertex="1">
          <mxGeometry y="120" width="180" height="30" as="geometry" />
        </mxCell>
        <mxCell id="TLOllca4X_2cKeXK6NPu-62" value="" style="shape=partialRectangle;connectable=0;fillColor=#FFFA9E;top=0;left=0;bottom=0;right=0;editable=1;overflow=hidden;strokeColor=#6c8ebf;" parent="TLOllca4X_2cKeXK6NPu-61" vertex="1">
          <mxGeometry width="30" height="30" as="geometry">
            <mxRectangle width="30" height="30" as="alternateBounds" />
          </mxGeometry>
        </mxCell>
        <mxCell id="TLOllca4X_2cKeXK6NPu-63" value="车型" style="shape=partialRectangle;connectable=0;fillColor=#FFFA9E;top=0;left=0;bottom=0;right=0;align=left;spacingLeft=6;overflow=hidden;strokeColor=#6c8ebf;" parent="TLOllca4X_2cKeXK6NPu-61" vertex="1">
          <mxGeometry x="30" width="150" height="30" as="geometry">
            <mxRectangle width="150" height="30" as="alternateBounds" />
          </mxGeometry>
        </mxCell>
        <mxCell id="TLOllca4X_2cKeXK6NPu-64" value="" style="shape=partialRectangle;collapsible=0;dropTarget=0;pointerEvents=0;fillColor=#FFFA9E;top=0;left=0;bottom=0;right=0;points=[[0,0.5],[1,0.5]];portConstraint=eastwest;" parent="TLOllca4X_2cKeXK6NPu-54" vertex="1">
          <mxGeometry y="150" width="180" height="30" as="geometry" />
        </mxCell>
        <mxCell id="TLOllca4X_2cKeXK6NPu-65" value="" style="shape=partialRectangle;connectable=0;fillColor=#FFFA9E;top=0;left=0;bottom=0;right=0;editable=1;overflow=hidden;strokeColor=#6c8ebf;" parent="TLOllca4X_2cKeXK6NPu-64" vertex="1">
          <mxGeometry width="30" height="30" as="geometry">
            <mxRectangle width="30" height="30" as="alternateBounds" />
          </mxGeometry>
        </mxCell>
        <mxCell id="TLOllca4X_2cKeXK6NPu-66" value="车型代码" style="shape=partialRectangle;connectable=0;fillColor=#FFFA9E;top=0;left=0;bottom=0;right=0;align=left;spacingLeft=6;overflow=hidden;strokeColor=#6c8ebf;" parent="TLOllca4X_2cKeXK6NPu-64" vertex="1">
          <mxGeometry x="30" width="150" height="30" as="geometry">
            <mxRectangle width="150" height="30" as="alternateBounds" />
          </mxGeometry>
        </mxCell>
        <mxCell id="TLOllca4X_2cKeXK6NPu-67" value="" style="shape=partialRectangle;collapsible=0;dropTarget=0;pointerEvents=0;fillColor=#FFFA9E;top=0;left=0;bottom=0;right=0;points=[[0,0.5],[1,0.5]];portConstraint=eastwest;" parent="TLOllca4X_2cKeXK6NPu-54" vertex="1">
          <mxGeometry y="180" width="180" height="30" as="geometry" />
        </mxCell>
        <mxCell id="TLOllca4X_2cKeXK6NPu-68" value="" style="shape=partialRectangle;connectable=0;fillColor=#FFFA9E;top=0;left=0;bottom=0;right=0;editable=1;overflow=hidden;strokeColor=#6c8ebf;" parent="TLOllca4X_2cKeXK6NPu-67" vertex="1">
          <mxGeometry width="30" height="30" as="geometry">
            <mxRectangle width="30" height="30" as="alternateBounds" />
          </mxGeometry>
        </mxCell>
        <mxCell id="TLOllca4X_2cKeXK6NPu-69" value="生产日期" style="shape=partialRectangle;connectable=0;fillColor=#FFFA9E;top=0;left=0;bottom=0;right=0;align=left;spacingLeft=6;overflow=hidden;strokeColor=#6c8ebf;" parent="TLOllca4X_2cKeXK6NPu-67" vertex="1">
          <mxGeometry x="30" width="150" height="30" as="geometry">
            <mxRectangle width="150" height="30" as="alternateBounds" />
          </mxGeometry>
        </mxCell>
        <mxCell id="TLOllca4X_2cKeXK6NPu-70" value="" style="shape=partialRectangle;collapsible=0;dropTarget=0;pointerEvents=0;fillColor=#FFFA9E;top=0;left=0;bottom=0;right=0;points=[[0,0.5],[1,0.5]];portConstraint=eastwest;" parent="TLOllca4X_2cKeXK6NPu-54" vertex="1">
          <mxGeometry y="210" width="180" height="30" as="geometry" />
        </mxCell>
        <mxCell id="TLOllca4X_2cKeXK6NPu-71" value="" style="shape=partialRectangle;connectable=0;fillColor=#FFFA9E;top=0;left=0;bottom=0;right=0;editable=1;overflow=hidden;strokeColor=#6c8ebf;" parent="TLOllca4X_2cKeXK6NPu-70" vertex="1">
          <mxGeometry width="30" height="30" as="geometry">
            <mxRectangle width="30" height="30" as="alternateBounds" />
          </mxGeometry>
        </mxCell>
        <mxCell id="TLOllca4X_2cKeXK6NPu-72" value="年代代码" style="shape=partialRectangle;connectable=0;fillColor=#FFFA9E;top=0;left=0;bottom=0;right=0;align=left;spacingLeft=6;overflow=hidden;strokeColor=#6c8ebf;" parent="TLOllca4X_2cKeXK6NPu-70" vertex="1">
          <mxGeometry x="30" width="150" height="30" as="geometry">
            <mxRectangle width="150" height="30" as="alternateBounds" />
          </mxGeometry>
        </mxCell>
        <mxCell id="TLOllca4X_2cKeXK6NPu-76" value="skr评价" style="shape=table;startSize=30;container=1;collapsible=1;childLayout=tableLayout;fixedRows=1;rowLines=0;fontStyle=1;align=center;resizeLast=1;fillColor=#D0C96F;strokeColor=#b85450;" parent="-Jd7vyAMfyjJsaXYtgSQ-1" vertex="1">
          <mxGeometry x="840" y="720" width="180" height="115" as="geometry" />
        </mxCell>
        <mxCell id="TLOllca4X_2cKeXK6NPu-77" value="" style="shape=partialRectangle;collapsible=0;dropTarget=0;pointerEvents=0;fillColor=#D0C96F;top=0;left=0;bottom=1;right=0;points=[[0,0.5],[1,0.5]];portConstraint=eastwest;" parent="TLOllca4X_2cKeXK6NPu-76" vertex="1">
          <mxGeometry y="30" width="180" height="30" as="geometry" />
        </mxCell>
        <mxCell id="TLOllca4X_2cKeXK6NPu-78" value="PK" style="shape=partialRectangle;connectable=0;fillColor=#D0C96F;top=0;left=0;bottom=0;right=0;fontStyle=1;overflow=hidden;strokeColor=#b85450;" parent="TLOllca4X_2cKeXK6NPu-77" vertex="1">
          <mxGeometry width="30" height="30" as="geometry">
            <mxRectangle width="30" height="30" as="alternateBounds" />
          </mxGeometry>
        </mxCell>
        <mxCell id="TLOllca4X_2cKeXK6NPu-79" value="ID" style="shape=partialRectangle;connectable=0;fillColor=#D0C96F;top=0;left=0;bottom=0;right=0;align=left;spacingLeft=6;fontStyle=5;overflow=hidden;strokeColor=#b85450;" parent="TLOllca4X_2cKeXK6NPu-77" vertex="1">
          <mxGeometry x="30" width="150" height="30" as="geometry">
            <mxRectangle width="150" height="30" as="alternateBounds" />
          </mxGeometry>
        </mxCell>
        <mxCell id="OXO-AGjDQIuk0UqCaN1q-0" value="" style="shape=partialRectangle;collapsible=0;dropTarget=0;pointerEvents=0;fillColor=#D0C96F;top=0;left=0;bottom=0;right=0;points=[[0,0.5],[1,0.5]];portConstraint=eastwest;" parent="TLOllca4X_2cKeXK6NPu-76" vertex="1">
          <mxGeometry y="60" width="180" height="30" as="geometry" />
        </mxCell>
        <mxCell id="OXO-AGjDQIuk0UqCaN1q-1" value="FK" style="shape=partialRectangle;connectable=0;fillColor=#D0C96F;top=0;left=0;bottom=0;right=0;fontStyle=0;overflow=hidden;strokeColor=#b85450;" parent="OXO-AGjDQIuk0UqCaN1q-0" vertex="1">
          <mxGeometry width="30" height="30" as="geometry">
            <mxRectangle width="30" height="30" as="alternateBounds" />
          </mxGeometry>
        </mxCell>
        <mxCell id="OXO-AGjDQIuk0UqCaN1q-2" value="skr管理ID" style="shape=partialRectangle;connectable=0;fillColor=#D0C96F;top=0;left=0;bottom=0;right=0;align=left;spacingLeft=6;fontStyle=0;overflow=hidden;strokeColor=#b85450;" parent="OXO-AGjDQIuk0UqCaN1q-0" vertex="1">
          <mxGeometry x="30" width="150" height="30" as="geometry">
            <mxRectangle width="150" height="30" as="alternateBounds" />
          </mxGeometry>
        </mxCell>
        <mxCell id="TLOllca4X_2cKeXK6NPu-86" value="" style="shape=partialRectangle;collapsible=0;dropTarget=0;pointerEvents=0;fillColor=#D0C96F;top=0;left=0;bottom=0;right=0;points=[[0,0.5],[1,0.5]];portConstraint=eastwest;" parent="TLOllca4X_2cKeXK6NPu-76" vertex="1">
          <mxGeometry y="90" width="180" height="25" as="geometry" />
        </mxCell>
        <mxCell id="TLOllca4X_2cKeXK6NPu-87" value="" style="shape=partialRectangle;connectable=0;fillColor=#D0C96F;top=0;left=0;bottom=0;right=0;editable=1;overflow=hidden;strokeColor=#b85450;" parent="TLOllca4X_2cKeXK6NPu-86" vertex="1">
          <mxGeometry width="30" height="25" as="geometry">
            <mxRectangle width="30" height="25" as="alternateBounds" />
          </mxGeometry>
        </mxCell>
        <mxCell id="TLOllca4X_2cKeXK6NPu-88" value="等级评价" style="shape=partialRectangle;connectable=0;fillColor=#D0C96F;top=0;left=0;bottom=0;right=0;align=left;spacingLeft=6;overflow=hidden;strokeColor=#b85450;" parent="TLOllca4X_2cKeXK6NPu-86" vertex="1">
          <mxGeometry x="30" width="150" height="25" as="geometry">
            <mxRectangle width="150" height="25" as="alternateBounds" />
          </mxGeometry>
        </mxCell>
        <mxCell id="9-1ZYpqubb55ALp7Nfj2-0" value="" style="endArrow=open;html=1;endSize=12;startArrow=diamondThin;startSize=14;startFill=0;edgeStyle=orthogonalEdgeStyle;align=left;verticalAlign=bottom;rounded=0;exitX=0;exitY=0.5;exitDx=0;exitDy=0;entryX=1;entryY=0.5;entryDx=0;entryDy=0;" parent="-Jd7vyAMfyjJsaXYtgSQ-1" source="TLOllca4X_2cKeXK6NPu-18" target="TLOllca4X_2cKeXK6NPu-58" edge="1">
          <mxGeometry x="-1" y="3" relative="1" as="geometry">
            <mxPoint x="220" y="1070" as="sourcePoint" />
            <mxPoint x="380" y="1070" as="targetPoint" />
          </mxGeometry>
        </mxCell>
        <mxCell id="GLfcdRq7hHhKy1tgJzma-0" value="" style="edgeStyle=entityRelationEdgeStyle;fontSize=12;html=1;endArrow=ERoneToMany;rounded=0;exitX=1;exitY=0.5;exitDx=0;exitDy=0;entryX=0;entryY=0.5;entryDx=0;entryDy=0;" parent="-Jd7vyAMfyjJsaXYtgSQ-1" source="TLOllca4X_2cKeXK6NPu-3" target="OXO-AGjDQIuk0UqCaN1q-0" edge="1">
          <mxGeometry width="100" height="100" relative="1" as="geometry">
            <mxPoint x="780" y="1050" as="sourcePoint" />
            <mxPoint x="880" y="950" as="targetPoint" />
          </mxGeometry>
        </mxCell>
      </root>
    </mxGraphModel>
  </diagram>
  <diagram name="skr时序图" id="MSPZWGJevCSYTT39VmB_">
    <mxGraphModel dx="1221" dy="721" grid="1" gridSize="10" guides="1" tooltips="1" connect="1" arrows="1" fold="1" page="1" pageScale="1" pageWidth="3300" pageHeight="4681" math="0" shadow="0">
      <root>
        <mxCell id="nMQyGNRqzd0hYEF32yeD-0" />
        <mxCell id="nMQyGNRqzd0hYEF32yeD-1" parent="nMQyGNRqzd0hYEF32yeD-0" />
        <mxCell id="CYmcqTmEEpYMZkpkXATh-0" value="技术支持前端" style="shape=umlLifeline;perimeter=lifelinePerimeter;whiteSpace=wrap;html=1;container=1;collapsible=0;recursiveResize=0;outlineConnect=0;" parent="nMQyGNRqzd0hYEF32yeD-1" vertex="1">
          <mxGeometry x="390" y="180" width="100" height="350" as="geometry" />
        </mxCell>
        <mxCell id="CYmcqTmEEpYMZkpkXATh-5" value="" style="html=1;points=[];perimeter=orthogonalPerimeter;" parent="CYmcqTmEEpYMZkpkXATh-0" vertex="1">
          <mxGeometry x="45" y="100" width="10" height="80" as="geometry" />
        </mxCell>
        <mxCell id="CYmcqTmEEpYMZkpkXATh-1" value="技术支持模块" style="shape=umlLifeline;perimeter=lifelinePerimeter;whiteSpace=wrap;html=1;container=1;collapsible=0;recursiveResize=0;outlineConnect=0;" parent="nMQyGNRqzd0hYEF32yeD-1" vertex="1">
          <mxGeometry x="670" y="180" width="100" height="350" as="geometry" />
        </mxCell>
        <mxCell id="CYmcqTmEEpYMZkpkXATh-6" value="" style="html=1;points=[];perimeter=orthogonalPerimeter;" parent="CYmcqTmEEpYMZkpkXATh-1" vertex="1">
          <mxGeometry x="55" y="130" width="10" height="40" as="geometry" />
        </mxCell>
        <mxCell id="CYmcqTmEEpYMZkpkXATh-7" value="1.1更新为待评价()" style="edgeStyle=orthogonalEdgeStyle;html=1;align=left;spacingLeft=2;endArrow=block;rounded=0;entryX=1;entryY=0;exitX=1;exitY=0.125;exitDx=0;exitDy=0;exitPerimeter=0;" parent="CYmcqTmEEpYMZkpkXATh-1" target="CYmcqTmEEpYMZkpkXATh-6" edge="1">
          <mxGeometry relative="1" as="geometry">
            <mxPoint x="56" y="110" as="sourcePoint" />
            <Array as="points">
              <mxPoint x="91" y="110" />
              <mxPoint x="91" y="130" />
            </Array>
          </mxGeometry>
        </mxCell>
        <mxCell id="IFVuN8uy4ySf2YurCmHS-0" value="" style="html=1;points=[];perimeter=orthogonalPerimeter;" parent="CYmcqTmEEpYMZkpkXATh-1" vertex="1">
          <mxGeometry x="45" y="100" width="10" height="80" as="geometry" />
        </mxCell>
        <mxCell id="IFVuN8uy4ySf2YurCmHS-1" value="" style="html=1;verticalAlign=bottom;endArrow=open;dashed=1;endSize=8;rounded=0;" parent="CYmcqTmEEpYMZkpkXATh-1" edge="1">
          <mxGeometry relative="1" as="geometry">
            <mxPoint x="45" y="180" as="sourcePoint" />
            <mxPoint x="-230.45238095238074" y="180" as="targetPoint" />
          </mxGeometry>
        </mxCell>
        <mxCell id="CYmcqTmEEpYMZkpkXATh-3" value="1.经销商提交申请服务改善报告()" style="html=1;verticalAlign=bottom;endArrow=block;entryX=0;entryY=0;rounded=0;exitX=0.994;exitY=-0.002;exitDx=0;exitDy=0;exitPerimeter=0;" parent="nMQyGNRqzd0hYEF32yeD-1" source="CYmcqTmEEpYMZkpkXATh-5" edge="1">
          <mxGeometry relative="1" as="geometry">
            <mxPoint x="450" y="280" as="sourcePoint" />
            <mxPoint x="716" y="280.0000000000001" as="targetPoint" />
          </mxGeometry>
        </mxCell>
        <mxCell id="deZPQ0ZPO2svtBgy__3--0" value="" style="html=1;points=[];perimeter=orthogonalPerimeter;" vertex="1" parent="nMQyGNRqzd0hYEF32yeD-1">
          <mxGeometry x="435" y="420" width="10" height="80" as="geometry" />
        </mxCell>
        <mxCell id="deZPQ0ZPO2svtBgy__3--1" value="" style="html=1;points=[];perimeter=orthogonalPerimeter;" vertex="1" parent="nMQyGNRqzd0hYEF32yeD-1">
          <mxGeometry x="716" y="420" width="10" height="80" as="geometry" />
        </mxCell>
        <mxCell id="deZPQ0ZPO2svtBgy__3--2" value="" style="html=1;points=[];perimeter=orthogonalPerimeter;" vertex="1" parent="nMQyGNRqzd0hYEF32yeD-1">
          <mxGeometry x="726" y="450" width="10" height="40" as="geometry" />
        </mxCell>
        <mxCell id="deZPQ0ZPO2svtBgy__3--3" value="2.1更新为已评价()" style="edgeStyle=orthogonalEdgeStyle;html=1;align=left;spacingLeft=2;endArrow=block;rounded=0;entryX=1;entryY=0;exitX=1;exitY=0.125;exitDx=0;exitDy=0;exitPerimeter=0;" edge="1" parent="nMQyGNRqzd0hYEF32yeD-1" source="deZPQ0ZPO2svtBgy__3--1" target="deZPQ0ZPO2svtBgy__3--2">
          <mxGeometry relative="1" as="geometry">
            <mxPoint x="51" y="-250" as="sourcePoint" />
            <Array as="points">
              <mxPoint x="761" y="430" />
              <mxPoint x="761" y="450" />
            </Array>
          </mxGeometry>
        </mxCell>
        <mxCell id="deZPQ0ZPO2svtBgy__3--4" value="2.FTE评价服务改善报告()" style="html=1;verticalAlign=bottom;endArrow=block;entryX=0;entryY=0;rounded=0;exitX=0.994;exitY=-0.002;exitDx=0;exitDy=0;exitPerimeter=0;" edge="1" parent="nMQyGNRqzd0hYEF32yeD-1" source="deZPQ0ZPO2svtBgy__3--0" target="deZPQ0ZPO2svtBgy__3--1">
          <mxGeometry x="-0.0022" relative="1" as="geometry">
            <mxPoint x="450" y="420" as="sourcePoint" />
            <mxPoint as="offset" />
          </mxGeometry>
        </mxCell>
        <mxCell id="deZPQ0ZPO2svtBgy__3--5" value="" style="html=1;verticalAlign=bottom;endArrow=open;dashed=1;endSize=8;rounded=0;entryX=0.994;entryY=1.005;entryDx=0;entryDy=0;entryPerimeter=0;" edge="1" parent="nMQyGNRqzd0hYEF32yeD-1" target="deZPQ0ZPO2svtBgy__3--0">
          <mxGeometry relative="1" as="geometry">
            <mxPoint x="640" y="496" as="targetPoint" />
            <mxPoint x="710" y="500" as="sourcePoint" />
          </mxGeometry>
        </mxCell>
        <mxCell id="deZPQ0ZPO2svtBgy__3--25" value="可直接保存为待提交，也可直接提交为待评价" style="shape=note;whiteSpace=wrap;html=1;backgroundOutline=1;darkOpacity=0.05;size=8;fillColor=#f8cecc;strokeColor=#b85450;" vertex="1" parent="nMQyGNRqzd0hYEF32yeD-1">
          <mxGeometry x="770" y="320" width="130" height="30" as="geometry" />
        </mxCell>
        <mxCell id="deZPQ0ZPO2svtBgy__3--26" value="" style="endArrow=none;dashed=1;html=1;rounded=0;entryX=0;entryY=0.5;entryDx=0;entryDy=0;entryPerimeter=0;exitX=0.98;exitY=0.304;exitDx=0;exitDy=0;exitPerimeter=0;" edge="1" parent="nMQyGNRqzd0hYEF32yeD-1" source="CYmcqTmEEpYMZkpkXATh-6" target="deZPQ0ZPO2svtBgy__3--25">
          <mxGeometry width="50" height="50" relative="1" as="geometry">
            <mxPoint x="690" y="400" as="sourcePoint" />
            <mxPoint x="740" y="350" as="targetPoint" />
          </mxGeometry>
        </mxCell>
        <mxCell id="deZPQ0ZPO2svtBgy__3--27" value="SKR时序图" style="shape=umlFrame;whiteSpace=wrap;html=1;width=70;height=15;" vertex="1" parent="nMQyGNRqzd0hYEF32yeD-1">
          <mxGeometry x="340" y="160" width="560" height="370" as="geometry" />
        </mxCell>
      </root>
    </mxGraphModel>
  </diagram>
  <diagram name="事件设计" id="ZQ_M2WJHBusWCOhHQ8H2">
    <mxGraphModel dx="1221" dy="721" grid="1" gridSize="10" guides="1" tooltips="1" connect="1" arrows="1" fold="1" page="1" pageScale="1" pageWidth="3300" pageHeight="4681" math="0" shadow="0">
      <root>
        <mxCell id="nFZOdpBm77N4jgitGjQz-0" />
        <mxCell id="nFZOdpBm77N4jgitGjQz-1" parent="nFZOdpBm77N4jgitGjQz-0" />
        <mxCell id="L5BT4rQLzP3vLzDiIXi7-7" value="" style="rounded=0;whiteSpace=wrap;html=1;dashed=1;fillColor=#d5e8d4;strokeColor=#82b366;" parent="nFZOdpBm77N4jgitGjQz-1" vertex="1">
          <mxGeometry x="255" y="207" width="785" height="230" as="geometry" />
        </mxCell>
        <mxCell id="L5BT4rQLzP3vLzDiIXi7-9" value="待提交" style="rounded=0;whiteSpace=wrap;html=1;" parent="nFZOdpBm77N4jgitGjQz-1" vertex="1">
          <mxGeometry x="410" y="300" width="120" height="60" as="geometry" />
        </mxCell>
        <mxCell id="L5BT4rQLzP3vLzDiIXi7-11" value="待评价" style="rounded=0;whiteSpace=wrap;html=1;" parent="nFZOdpBm77N4jgitGjQz-1" vertex="1">
          <mxGeometry x="660" y="300" width="120" height="60" as="geometry" />
        </mxCell>
        <mxCell id="L5BT4rQLzP3vLzDiIXi7-12" value="保存" style="html=1;verticalAlign=bottom;endArrow=block;rounded=0;entryX=0;entryY=0.5;entryDx=0;entryDy=0;exitX=0.001;exitY=0.534;exitDx=0;exitDy=0;exitPerimeter=0;" parent="nFZOdpBm77N4jgitGjQz-1" edge="1" source="L5BT4rQLzP3vLzDiIXi7-7">
          <mxGeometry x="-0.0667" y="-10" width="80" relative="1" as="geometry">
            <mxPoint x="260" y="330" as="sourcePoint" />
            <mxPoint x="410" y="330" as="targetPoint" />
            <mxPoint as="offset" />
          </mxGeometry>
        </mxCell>
        <mxCell id="cm5n7gn1L0gaZMBjaX92-0" value="提交" style="html=1;verticalAlign=bottom;endArrow=block;rounded=0;entryX=0;entryY=0.5;entryDx=0;entryDy=0;" parent="nFZOdpBm77N4jgitGjQz-1" source="L5BT4rQLzP3vLzDiIXi7-9" target="L5BT4rQLzP3vLzDiIXi7-11" edge="1">
          <mxGeometry x="0.0769" y="-10" width="80" relative="1" as="geometry">
            <mxPoint x="530" y="330" as="sourcePoint" />
            <mxPoint x="610" y="330" as="targetPoint" />
            <mxPoint as="offset" />
          </mxGeometry>
        </mxCell>
        <mxCell id="CK_J188c_vr2jGaLUtWj-0" value="SKR状态迁移" style="text;html=1;strokeColor=none;fillColor=none;align=center;verticalAlign=middle;whiteSpace=wrap;rounded=0;" parent="nFZOdpBm77N4jgitGjQz-1" vertex="1">
          <mxGeometry x="250" y="207" width="100" height="30" as="geometry" />
        </mxCell>
        <mxCell id="9qvM9SpE4d8n94hiWB6h-0" value="已评价" style="rounded=0;whiteSpace=wrap;html=1;" vertex="1" parent="nFZOdpBm77N4jgitGjQz-1">
          <mxGeometry x="910" y="300" width="120" height="60" as="geometry" />
        </mxCell>
        <mxCell id="9qvM9SpE4d8n94hiWB6h-1" value="评价" style="html=1;verticalAlign=bottom;endArrow=block;rounded=0;entryX=0;entryY=0.5;entryDx=0;entryDy=0;" edge="1" parent="nFZOdpBm77N4jgitGjQz-1">
          <mxGeometry x="0.0769" y="-10" width="80" relative="1" as="geometry">
            <mxPoint x="780" y="329.5" as="sourcePoint" />
            <mxPoint x="910" y="329.5" as="targetPoint" />
            <mxPoint as="offset" />
          </mxGeometry>
        </mxCell>
        <mxCell id="9qvM9SpE4d8n94hiWB6h-2" value="" style="curved=1;endArrow=classic;html=1;rounded=0;entryX=0.5;entryY=0;entryDx=0;entryDy=0;exitX=0.001;exitY=0.535;exitDx=0;exitDy=0;exitPerimeter=0;" edge="1" parent="nFZOdpBm77N4jgitGjQz-1" source="L5BT4rQLzP3vLzDiIXi7-7" target="L5BT4rQLzP3vLzDiIXi7-11">
          <mxGeometry width="50" height="50" relative="1" as="geometry">
            <mxPoint x="260" y="330" as="sourcePoint" />
            <mxPoint x="520" y="300" as="targetPoint" />
            <Array as="points">
              <mxPoint x="410" y="250" />
              <mxPoint x="690" y="250" />
            </Array>
          </mxGeometry>
        </mxCell>
        <mxCell id="9qvM9SpE4d8n94hiWB6h-3" value="提交" style="edgeLabel;html=1;align=center;verticalAlign=middle;resizable=0;points=[];" vertex="1" connectable="0" parent="9qvM9SpE4d8n94hiWB6h-2">
          <mxGeometry x="-0.156" y="-10" relative="1" as="geometry">
            <mxPoint as="offset" />
          </mxGeometry>
        </mxCell>
      </root>
    </mxGraphModel>
  </diagram>
</mxfile>
